<?xml version="1.0" encoding="UTF-8"?>
<svg width="420px" height="55px" viewBox="0 0 420 55" version="1.1" xmlns="http://www.w3.org/2000/svg" xmlns:xlink="http://www.w3.org/1999/xlink">
    <!-- Generator: Sketch 52.4 (67378) - http://www.bohemiancoding.com/sketch -->
    <title>Group</title>
    <desc>Created with Sketch.</desc>
    <defs>
        <rect id="path-1" x="0" y="0" width="420" height="55"></rect>
    </defs>
    <g id="Logo" stroke="none" stroke-width="1" fill="none" fill-rule="evenodd">
        <g id="Simple-Brochure">
            <g id="Group-3">
                <g id="Group">
                    <mask id="mask-2" fill="white">
                        <use xlink:href="#path-1"></use>
                    </mask>
                    <use id="Rectangle-3" fill="#FFFFFF" xlink:href="#path-1"></use>
                    <g id="Group-2" mask="url(#mask-2)" fill="#43CBCB">
                        <g transform="translate(229.000000, 34.500000) rotate(-180.000000) translate(-229.000000, -34.500000) translate(-49.000000, -238.000000)" id="Fill-1">
                            <path d="M260.654839,310 C255.665941,310 250.657819,308.646626 246.707074,305.93021 L138.70081,231.871631 C133.740751,228.468861 130.933895,223.364707 131.001183,217.864207 C131.06847,212.363706 133.990676,207.32722 139.037248,204.050121 L246.793586,133.790657 C254.579727,128.734838 266.287775,128.734838 274.045078,133.800324 L385.011997,206.138184 C390.087407,209.453952 393,214.509771 393,220.029605 C393,225.539773 390.087407,230.605259 385.011997,233.91136 L274.035465,306.258887 C270.20007,308.762629 265.432261,310 260.654839,310 Z" opacity="0.300000012"></path>
                            <path d="M129.654839,354 C124.665941,354 119.657819,352.646626 115.707074,349.93021 L7.70081034,275.871631 C2.74075054,272.468861 -0.0661050022,267.364707 0.00118263072,261.864207 C0.0684702636,256.363706 2.99067603,251.32722 8.0372485,248.050121 L115.793586,177.790657 C123.579727,172.734838 135.287775,172.734838 143.045078,177.800324 L254.011997,250.138184 C259.087407,253.453952 262,258.509771 262,264.029605 C262,269.539773 259.087407,274.605259 254.011997,277.91136 L143.035465,350.258887 C139.20007,352.762629 134.432261,354 129.654839,354 Z" opacity="0.300000012"></path>
                            <path d="M260.654839,391 C255.665941,391 250.657819,389.646626 246.707074,386.93021 L138.70081,312.871631 C133.740751,309.468861 130.933895,304.364707 131.001183,298.864207 C131.06847,293.363706 133.990676,288.32722 139.037248,285.050121 L246.793586,214.790657 C254.579727,209.734838 266.287775,209.734838 274.045078,214.800324 L385.011997,287.138184 C390.087407,290.453952 393,295.509771 393,301.029605 C393,306.539773 390.087407,311.605259 385.011997,314.91136 L274.035465,387.258887 C270.20007,389.762629 265.432261,391 260.654839,391 Z" opacity="0.200000003"></path>
                            <path d="M412.654839,448 C407.665941,448 402.657819,446.646626 398.707074,443.93021 L290.70081,369.871631 C285.740751,366.468861 282.933895,361.364707 283.001183,355.864207 C283.06847,350.363706 285.990676,345.32722 291.037248,342.050121 L398.793586,271.790657 C406.579727,266.734838 418.287775,266.734838 426.045078,271.800324 L537.011997,344.138184 C542.087407,347.453952 545,352.509771 545,358.029605 C545,363.539773 542.087407,368.605259 537.011997,371.91136 L426.035465,444.258887 C422.20007,446.762629 417.432261,448 412.654839,448 Z" opacity="0.200000003"></path>
                            <path d="M423.654839,358 C418.665941,358 413.657819,356.646626 409.707074,353.93021 L301.70081,279.871631 C296.740751,276.468861 293.933895,271.364707 294.001183,265.864207 C294.06847,260.363706 296.990676,255.32722 302.037248,252.050121 L409.793586,181.790657 C417.579727,176.734838 429.287775,176.734838 437.045078,181.800324 L548.011997,254.138184 C553.087407,257.453952 556,262.509771 556,268.029605 C556,273.539773 553.087407,278.605259 548.011997,281.91136 L437.035465,354.258887 C433.20007,356.762629 428.432261,358 423.654839,358 Z" opacity="0.200000003"></path>
                            <path d="M163.654839,253 C158.665941,253 153.657819,251.646626 149.707074,248.93021 L41.7008103,174.871631 C36.7407505,171.468861 33.933895,166.364707 34.0011826,160.864207 C34.0684703,155.363706 36.990676,150.32722 42.0372485,147.050121 L149.793586,76.7906575 C157.579727,71.7348375 169.287775,71.7348375 177.045078,76.8003244 L288.011997,149.138184 C293.087407,152.453952 296,157.509771 296,163.029605 C296,168.539773 293.087407,173.605259 288.011997,176.91136 L177.035465,249.258887 C173.20007,251.762629 168.432261,253 163.654839,253 Z" opacity="0.0982142857"></path>
                            <path d="M327.654839,269 C322.665941,269 317.657819,267.646626 313.707074,264.93021 L205.70081,190.871631 C200.740751,187.468861 197.933895,182.364707 198.001183,176.864207 C198.06847,171.363706 200.990676,166.32722 206.037248,163.050121 L313.793586,92.7906575 C321.579727,87.7348375 333.287775,87.7348375 341.045078,92.8003244 L452.011997,165.138184 C457.087407,168.453952 460,173.509771 460,179.029605 C460,184.539773 457.087407,189.605259 452.011997,192.91136 L341.035465,265.258887 C337.20007,267.762629 332.432261,269 327.654839,269 Z" opacity="0.0982142857"></path>
                            <path d="M380.654839,365 C375.665941,365 370.657819,363.646626 366.707074,360.93021 L258.70081,286.871631 C253.740751,283.468861 250.933895,278.364707 251.001183,272.864207 C251.06847,267.363706 253.990676,262.32722 259.037248,259.050121 L366.793586,188.790657 C374.579727,183.734838 386.287775,183.734838 394.045078,188.800324 L505.011997,261.138184 C510.087407,264.453952 513,269.509771 513,275.029605 C513,280.539773 510.087407,285.605259 505.011997,288.91136 L394.035465,361.258887 C390.20007,363.762629 385.432261,365 380.654839,365 Z" opacity="0.0982142857"></path>
                        </g>
                    </g>
                </g>
            </g>
        </g>
    </g>
</svg>