<?xml version="1.0" encoding="UTF-8"?>
<svg width="282px" height="810px" viewBox="0 0 282 810" version="1.1" xmlns="http://www.w3.org/2000/svg" xmlns:xlink="http://www.w3.org/1999/xlink">
    <!-- Generator: Sketch 52.4 (67378) - http://www.bohemiancoding.com/sketch -->
    <title>Artboard 24</title>
    <desc>Created with Sketch.</desc>
    <defs>
        <rect id="path-1" x="0" y="0" width="282" height="810"></rect>
    </defs>
    <g id="Artboard-24" stroke="none" stroke-width="1" fill="none" fill-rule="evenodd">
        <g id="Group">
            <mask id="mask-2" fill="white">
                <use xlink:href="#path-1"></use>
            </mask>
            <use id="Rectangle-3" fill="#FFFFFF" xlink:href="#path-1"></use>
            <g id="Group-2" mask="url(#mask-2)" fill="#43CBCB">
                <g transform="translate(-593.000000, -256.000000)" id="Fill-1">
                    <path d="M760.983071,1126 C747.939579,1126 734.845824,1122.48123 724.516586,1115.41855 L442.133798,922.866241 C429.165703,914.01904 421.827168,900.748237 422.003092,886.446937 C422.179016,872.145637 429.819134,859.050773 443.013417,850.530315 L724.742773,667.855709 C745.099667,654.710578 775.710404,654.710578 795.991901,667.880843 L1086.11533,855.959279 C1099.38501,864.580274 1107,877.725406 1107,892.076974 C1107,906.403409 1099.38501,919.573675 1086.11533,928.169535 L795.966769,1116.27311 C785.939114,1122.78284 773.473658,1126 760.983071,1126 Z" opacity="0.300000012"></path>
                    <path d="M664.983071,916 C651.939579,916 638.845824,912.481227 628.516586,905.418546 L346.133798,712.866241 C333.165703,704.01904 325.827168,690.748237 326.003092,676.446937 C326.179016,662.145637 333.819134,649.050773 347.013417,640.530315 L628.742773,457.855709 C649.099667,444.710578 679.710404,444.710578 699.991901,457.880843 L990.115335,645.959279 C1003.38501,654.580274 1011,667.725406 1011,682.076974 C1011,696.403409 1003.38501,709.573675 990.115335,718.169535 L699.966769,906.273105 C689.939114,912.782836 677.473658,916 664.983071,916 Z" opacity="0.300000012"></path>
                    <path d="M510.983071,1170 C497.939579,1170 484.845824,1166.48123 474.516586,1159.41855 L192.133798,966.866241 C179.165703,958.01904 171.827168,944.748237 172.003092,930.446937 C172.179016,916.145637 179.819134,903.050773 193.013417,894.530315 L474.742773,711.855709 C495.099667,698.710578 525.710404,698.710578 545.991901,711.880843 L836.115335,899.959279 C849.385014,908.580274 857,921.725406 857,936.076974 C857,950.403409 849.385014,963.573675 836.115335,972.169535 L545.966769,1160.27311 C535.939114,1166.78284 523.473658,1170 510.983071,1170 Z" opacity="0.200000003"></path>
                    <path d="M1121.98307,1170 C1108.93958,1170 1095.84582,1166.48123 1085.51659,1159.41855 L803.133798,966.866241 C790.165703,958.01904 782.827168,944.748237 783.003092,930.446937 C783.179016,916.145637 790.819134,903.050773 804.013417,894.530315 L1085.74277,711.855709 C1106.09967,698.710578 1136.7104,698.710578 1156.9919,711.880843 L1447.11533,899.959279 C1460.38501,908.580274 1468,921.725406 1468,936.076974 C1468,950.403409 1460.38501,963.573675 1447.11533,972.169535 L1156.96677,1160.27311 C1146.93911,1166.78284 1134.47366,1170 1121.98307,1170 Z" opacity="0.200000003"></path>
                    <path d="M946.983071,891 C933.939579,891 920.845824,887.481227 910.516586,880.418546 L628.133798,687.866241 C615.165703,679.01904 607.827168,665.748237 608.003092,651.446937 C608.179016,637.145637 615.819134,624.050773 629.013417,615.530315 L910.742773,432.855709 C931.099667,419.710578 961.710404,419.710578 981.991901,432.880843 L1272.11533,620.959279 C1285.38501,629.580274 1293,642.725406 1293,657.076974 C1293,671.403409 1285.38501,684.573675 1272.11533,693.169535 L981.966769,881.273105 C971.939114,887.782836 959.473658,891 946.983071,891 Z" opacity="0.200000003"></path>
                    <path d="M469.983071,658 C456.939579,658 443.845824,654.481227 433.516586,647.418546 L151.133798,454.866241 C138.165703,446.01904 130.827168,432.748237 131.003092,418.446937 C131.179016,404.145637 138.819134,391.050773 152.013417,382.530315 L433.742773,199.855709 C454.099667,186.710578 484.710404,186.710578 504.991901,199.880843 L795.115335,387.959279 C808.385014,396.580274 816,409.725406 816,424.076974 C816,438.403409 808.385014,451.573675 795.115335,460.169535 L504.966769,648.273105 C494.939114,654.782836 482.473658,658 469.983071,658 Z" opacity="0.0982142857"></path>
                    <path d="M899.983071,702 C886.939579,702 873.845824,698.481227 863.516586,691.418546 L581.133798,498.866241 C568.165703,490.01904 560.827168,476.748237 561.003092,462.446937 C561.179016,448.145637 568.819134,435.050773 582.013417,426.530315 L863.742773,243.855709 C884.099667,230.710578 914.710404,230.710578 934.991901,243.880843 L1225.11533,431.959279 C1238.38501,440.580274 1246,453.725406 1246,468.076974 C1246,482.403409 1238.38501,495.573675 1225.11533,504.169535 L934.966769,692.273105 C924.939114,698.782836 912.473658,702 899.983071,702 Z" opacity="0.0982142857"></path>
                    <path d="M811.983071,468 C798.939579,468 785.845824,464.481227 775.516586,457.418546 L493.133798,264.866241 C480.165703,256.01904 472.827168,242.748237 473.003092,228.446937 C473.179016,214.145637 480.819134,201.050773 494.013417,192.530315 L775.742773,9.8557094 C796.099667,-3.28942248 826.710404,-3.28942248 846.991901,9.8808435 L1137.11533,197.959279 C1150.38501,206.580274 1158,219.725406 1158,234.076974 C1158,248.403409 1150.38501,261.573675 1137.11533,270.169535 L846.966769,458.273105 C836.939114,464.782836 824.473658,468 811.983071,468 Z" opacity="0.0982142857"></path>
                    <path d="M695.983071,1424 C682.939579,1424 669.845824,1420.48123 659.516586,1413.41855 L377.133798,1220.86624 C364.165703,1212.01904 356.827168,1198.74824 357.003092,1184.44694 C357.179016,1170.14564 364.819134,1157.05077 378.013417,1148.53031 L659.742773,965.855709 C680.099667,952.710578 710.710404,952.710578 730.991901,965.880843 L1021.11533,1153.95928 C1034.38501,1162.58027 1042,1175.72541 1042,1190.07697 C1042,1204.40341 1034.38501,1217.57367 1021.11533,1226.16954 L730.966769,1414.27311 C720.939114,1420.78284 708.473658,1424 695.983071,1424 Z" opacity="0.0982142857"></path>
                    <path d="M338.983071,946 C325.939579,946 312.845824,942.481227 302.516586,935.418546 L20.133798,742.866241 C7.16570275,734.01904 -0.17283178,720.748237 0.00309199253,706.446937 C0.179015765,692.145637 7.81913391,679.050773 21.0134169,670.530315 L302.742773,487.855709 C323.099667,474.710578 353.710404,474.710578 373.991901,487.880843 L664.115335,675.959279 C677.385014,684.580274 685,697.725406 685,712.076974 C685,726.403409 677.385014,739.573675 664.115335,748.169535 L373.966769,936.273105 C363.939114,942.782836 351.473658,946 338.983071,946 Z" opacity="0.0982142857"></path>
                </g>
            </g>
        </g>
    </g>
</svg>