<?xml version="1.0" encoding="UTF-8"?>
<svg width="1325px" height="1404px" viewBox="0 0 1325 1404" version="1.1" xmlns="http://www.w3.org/2000/svg" xmlns:xlink="http://www.w3.org/1999/xlink">
    <!-- Generator: Sketch 52.4 (67378) - http://www.bohemiancoding.com/sketch -->
    <title>banner bg</title>
    <desc>Created with Sketch.</desc>
    <defs>
        <rect id="path-1" x="631" y="0" width="1325" height="2255"></rect>
    </defs>
    <g id="Logo" stroke="none" stroke-width="1" fill="none" fill-rule="evenodd">
        <g id="Artboard-26" transform="translate(0.000000, -1405.000000)">
            <g id="banner-bg" transform="translate(-631.000000, 554.000000)">
                <mask id="mask-2" fill="white">
                    <use xlink:href="#path-1"></use>
                </mask>
                <g id="Rectangle"></g>
                <g id="Group-2" mask="url(#mask-2)" fill="#43CBCB">
                    <g transform="translate(0.000000, 851.000000)" id="Fill-1">
                        <path d="M1248.54315,1851 C1222.7418,1851 1196.84101,1844.04516 1176.40872,1830.0858 L617.82671,1449.50699 C592.174492,1432.02054 577.658121,1405.79085 578.006116,1377.52439 C578.354111,1349.25794 593.467046,1323.37599 619.566686,1306.53534 L1176.85614,945.479768 C1217.12416,919.498471 1277.67532,919.498471 1317.7942,945.529445 L1891.688,1317.26567 C1917.93678,1334.30503 1933,1360.28633 1933,1388.65214 C1933,1416.96828 1917.93678,1442.99925 1891.688,1459.98893 L1317.74449,1831.77483 C1297.90876,1844.64129 1273.25081,1851 1248.54315,1851 Z" opacity="0.300000012"></path>
                        <path d="M1057.54315,1436 C1031.7418,1436 1005.84101,1429.04516 985.40872,1415.0858 L426.82671,1034.50699 C401.174492,1017.02054 386.658121,990.790853 387.006116,962.524395 C387.354111,934.257936 402.467046,908.375994 428.566686,891.535344 L985.856143,530.479768 C1026.12416,504.498471 1086.67532,504.498471 1126.7942,530.529445 L1700.688,902.265669 C1726.93678,919.305029 1742,945.286326 1742,973.652139 C1742,1001.96828 1726.93678,1027.99925 1700.688,1044.98893 L1126.74449,1416.77483 C1106.90876,1429.64129 1082.25081,1436 1057.54315,1436 Z" opacity="0.300000012"></path>
                        <path d="M753.543154,1937 C727.741796,1937 701.84101,1930.04516 681.40872,1916.0858 L122.82671,1535.50699 C97.1744923,1518.02054 82.6581211,1491.79085 83.0061163,1463.52439 C83.3541115,1435.25794 98.4670459,1409.37599 124.566686,1392.53534 L681.856143,1031.47977 C722.124159,1005.49847 782.675324,1005.49847 822.794199,1031.52944 L1396.688,1403.26567 C1422.93678,1420.30503 1438,1446.28633 1438,1474.65214 C1438,1502.96828 1422.93678,1528.99925 1396.688,1545.98893 L822.744485,1917.77483 C802.908759,1930.64129 778.250813,1937 753.543154,1937 Z" opacity="0.200000003"></path>
                        <path d="M1959.54315,1937 C1933.7418,1937 1907.84101,1930.04516 1887.40872,1916.0858 L1328.82671,1535.50699 C1303.17449,1518.02054 1288.65812,1491.79085 1289.00612,1463.52439 C1289.35411,1435.25794 1304.46705,1409.37599 1330.56669,1392.53534 L1887.85614,1031.47977 C1928.12416,1005.49847 1988.67532,1005.49847 2028.7942,1031.52944 L2602.688,1403.26567 C2628.93678,1420.30503 2644,1446.28633 2644,1474.65214 C2644,1502.96828 2628.93678,1528.99925 2602.688,1545.98893 L2028.74449,1917.77483 C2008.90876,1930.64129 1984.25081,1937 1959.54315,1937 Z" opacity="0.200000003"></path>
                        <path d="M1613.54315,1387 C1587.7418,1387 1561.84101,1380.04516 1541.40872,1366.0858 L982.82671,985.506994 C957.174492,968.020538 942.658121,941.790853 943.006116,913.524395 C943.354111,885.257936 958.467046,859.375994 984.566686,842.535344 L1541.85614,481.479768 C1582.12416,455.498471 1642.67532,455.498471 1682.7942,481.529445 L2256.688,853.265669 C2282.93678,870.305029 2298,896.286326 2298,924.652139 C2298,952.968276 2282.93678,978.99925 2256.688,995.988932 L1682.74449,1367.77483 C1662.90876,1380.64129 1638.25081,1387 1613.54315,1387 Z" opacity="0.200000003"></path>
                        <path d="M670.543154,925 C644.741796,925 618.84101,918.04516 598.40872,904.085801 L39.8267099,523.506994 C14.1744923,506.020538 -0.341878923,479.790853 0.00611627719,451.524395 C0.354111478,423.257936 15.4670459,397.375994 41.5666859,380.535344 L598.856143,19.4797675 C639.124159,-6.50152948 699.675324,-6.50152948 739.794199,19.5294449 L1313.688,391.265669 C1339.93678,408.305029 1355,434.286326 1355,462.652139 C1355,490.968276 1339.93678,516.99925 1313.688,533.988932 L739.744485,905.774834 C719.908759,918.641289 695.250813,925 670.543154,925 Z" opacity="0.0982142857"></path>
                        <path d="M1520.54315,1012 C1494.7418,1012 1468.84101,1005.04516 1448.40872,991.085801 L889.82671,610.506994 C864.174492,593.020538 849.658121,566.790853 850.006116,538.524395 C850.354111,510.257936 865.467046,484.375994 891.566686,467.535344 L1448.85614,106.479768 C1489.12416,80.4984705 1549.67532,80.4984705 1589.7942,106.529445 L2163.688,478.265669 C2189.93678,495.305029 2205,521.286326 2205,549.652139 C2205,577.968276 2189.93678,603.99925 2163.688,620.988932 L1589.74449,992.774834 C1569.90876,1005.64129 1545.25081,1012 1520.54315,1012 Z" opacity="0.0982142857"></path>
                    </g>
                </g>
            </g>
        </g>
    </g>
</svg>