<svg xmlns="http://www.w3.org/2000/svg" viewBox="0 0 1320 175"><defs><style>.a{fill:#fff;}</style></defs><title>dhis2developers-logo-rgb-negative</title><path class="a" d="M184,56.48,101.25,2.84a19.75,19.75,0,0,0-20.33,0L.57,54.93A12,12,0,0,0,.32,75.56l80.54,54.91a19.39,19.39,0,0,0,20.38.25L184,77.07a11.87,11.87,0,0,0,0-20.59ZM92.94,117.93a4.29,4.29,0,0,1-3.49-.05l-77-52.49L89.21,15.63a4.76,4.76,0,0,1,3.74,0l78.91,51.15Z"/><path class="a" d="M80.92,44.32,37.36,72.56,51,81.89,89.21,57.11a4.76,4.76,0,0,1,3.74,0l39.37,25.52,14.05-9.06L101.25,44.32A19.78,19.78,0,0,0,80.92,44.32Z"/><path class="a" d="M184,98l-8.62-5.59-14,9.06,10.52,6.83L92.94,159.41a4.37,4.37,0,0,1-3.49,0l-77-52.5,10-6.47L8.81,91.07.57,96.41A12,12,0,0,0,.32,117L80.86,172a19.36,19.36,0,0,0,20.38.24L184,118.55A11.87,11.87,0,0,0,184,98Z"/><path class="a" d="M285.67,67.22q-6.92-11-20.62-11a29.31,29.31,0,0,0-22.88,10.39q-9.33,10.69-9.33,27.85t9.78,28.3a30.15,30.15,0,0,0,23.48,10.68q14,0,20.78-13.39l2.1,11.29h14.6V28.09H285.67Zm0,31.76a18,18,0,0,1-5.27,13.25,16.12,16.12,0,0,1-24.53-1.13q-5.12-6.24-5.12-16.48t5-16.33a15.65,15.65,0,0,1,12.57-6.1q7.53,0,12,4.51a18.36,18.36,0,0,1,5.27,12.8Z"/><path class="a" d="M360.93,56.23q-14.44,0-22,13.85v-42H321.2V131.35H339V97.48q.3-12.65,5.34-19t12.12-6.32q7.06,0,11,4.14t3.91,12.27v42.75h17.76V88.6q0-14.61-6.85-23.49T360.93,56.23Z"/><rect class="a" x="406.09" y="58.04" width="17.76" height="73.31"/><path class="a" d="M415,24.17q-5.27,0-8.13,2.79a10.15,10.15,0,0,0-2.86,7.6,10.13,10.13,0,0,0,2.86,7.6c1.91,1.86,4.62,2.78,8.13,2.78s6.1-.92,8-2.78a10,10,0,0,0,2.94-7.6A10,10,0,0,0,423,27C421.07,25.1,418.38,24.17,415,24.17Z"/><path class="a" d="M486.47,92.06l-17.31-6.47q-8.88-2.57-8.88-7.83,0-3,3.23-5.35t9.11-2.33c3.91,0,6.93.71,9,2.11a7.38,7.38,0,0,1,3.46,5.72h16.71a20.11,20.11,0,0,0-7.91-15.51q-7.6-6.16-21.67-6.17t-22.43,5.65q-8.35,5.64-8.36,15,0,14,17.76,20.17l16,5.71a22.53,22.53,0,0,1,7.08,3.32,6.18,6.18,0,0,1,2.25,5.12c0,2.2-1.23,4.14-3.68,5.79a16.49,16.49,0,0,1-9.41,2.48q-14.91,0-15.21-10.38H439.66q.15,11.6,9,18t23.48,6.39q14.59,0,23.48-6.92,8.58-6.63,8.58-15.65a15.31,15.31,0,0,0-4.59-11.52Q495.05,94.92,486.47,92.06Z"/><path class="a" d="M536.14,115.09v-3.61a8.65,8.65,0,0,1,2.79-6.55c1.85-1.75,4.89-3.19,9.11-4.29l15.8-3.92q13.24-3.3,19.19-9.4t6-17.24Q589,59,579.8,51.42q-9.49-7.83-24.24-7.83-15.79,0-25.29,6.77Q520.34,57.59,520,71.14h19.72q1.5-12,16.71-12,6.91,0,10.83,3.31a10.42,10.42,0,0,1,3.92,8.29A11.34,11.34,0,0,1,567.83,79q-3.39,3.39-11.67,5.49L541.86,88q-12.2,3-17.76,9.33-5.72,6.77-5.72,19.26v14.76h71.2V115.09Z"/><path class="a" d="M667.68,120Q660.93,133.3,647,133.3a30,30,0,0,1-23.4-10.65q-9.75-11.1-9.75-28.2t9.3-27.75a29.19,29.19,0,0,1,22.8-10.35q13.65,0,20.55,10.95v-39h17.85V131.2H669.78Zm-18.45-47.7a15.6,15.6,0,0,0-12.52,6.08q-5,6.08-5,16.27t5.1,16.43a16.08,16.08,0,0,0,24.45,1.12A17.88,17.88,0,0,0,666.48,99V89.5a18.31,18.31,0,0,0-5.25-12.75Q656.73,72.25,649.23,72.25Z"/><path class="a" d="M760.6,78.1a40.79,40.79,0,0,1,1.88,11.55,67.27,67.27,0,0,1-.6,9.45h-47.1q.3,8.87,4.35,14.4t12.3,5.55q11,0,13.05-9.6h17.85a26.16,26.16,0,0,1-10.05,17.25q-8.55,6.6-20.85,6.6a31.63,31.63,0,0,1-24.15-10.5q-10-10.93-10-28,0-17.55,10-28.2,9.6-10.2,24.15-10.2Q746.58,56.35,755,67A33.31,33.31,0,0,1,760.6,78.1Zm-29-7.65q-7.5,0-11.7,4.88a21.91,21.91,0,0,0-5,12.52H746Q746,76,738.48,72A14.77,14.77,0,0,0,731.58,70.45Z"/><path class="a" d="M789.33,58.3,806,113.65l16.8-55.35h20.4L816,131.2H796.08L768.93,58.3Z"/><path class="a" d="M912.4,78.1a40.79,40.79,0,0,1,1.88,11.55,67.27,67.27,0,0,1-.6,9.45h-47.1q.3,8.87,4.35,14.4t12.3,5.55q10.95,0,13-9.6h17.85a26.16,26.16,0,0,1-10,17.25q-8.55,6.6-20.85,6.6a31.63,31.63,0,0,1-24.15-10.5Q849,111.87,849,94.75q0-17.55,10.05-28.2,9.6-10.2,24.15-10.2,15.15,0,23.55,10.65A33.31,33.31,0,0,1,912.4,78.1Zm-29-7.65q-7.5,0-11.7,4.88a21.91,21.91,0,0,0-4.95,12.52h31q0-11.84-7.5-15.9A14.77,14.77,0,0,0,883.38,70.45Z"/><path class="a" d="M929.43,28.3h17.7V131.2h-17.7Z"/><path class="a" d="M995.73,56.35a40.39,40.39,0,0,1,13.8,2.33,28.84,28.84,0,0,1,11.1,7.12Q1031,76.3,1031,94.9q0,18.3-10.35,28.8-9.3,9.6-24.9,9.6t-25.2-9.6q-10.35-10.35-10.35-28.8,0-18.75,10.35-29.1Q980,56.35,995.73,56.35Zm17.55,38.4q0-11.55-4.5-17.32t-12.53-5.78a16.7,16.7,0,0,0-13.12,5.78Q978,83.21,978,94.75t4.57,17.33q4.57,5.78,12.53,5.77a16.62,16.62,0,0,0,13-5.77Q1013.28,106.31,1013.28,94.75Z"/><path class="a" d="M1060.08,68.2q6.89-11.85,21-11.85a30.59,30.59,0,0,1,23.1,10.2q10.2,10.8,10.2,28.2,0,17.55-10.35,28.35-9.6,10.2-23,10.2t-19.5-8v41.4h-17.7V58.3h14.55Zm17.85,49.05a17.5,17.5,0,0,0,6.52-1.35,17.07,17.07,0,0,0,6.08-4.2q6-6.3,6-16.87t-5.18-16.58a16.08,16.08,0,0,0-12.6-6q-7.43,0-12.15,4.28t-5,12.22v13a14.44,14.44,0,0,0,5,11.4A16.73,16.73,0,0,0,1077.93,117.25Z"/><path class="a" d="M1185.4,78.1a40.75,40.75,0,0,1,1.87,11.55,67.27,67.27,0,0,1-.6,9.45h-47.1q.3,8.87,4.35,14.4t12.3,5.55q11,0,13-9.6h17.85a26.16,26.16,0,0,1-10,17.25q-8.55,6.6-20.85,6.6a31.63,31.63,0,0,1-24.15-10.5q-10-10.93-10-28,0-17.55,10-28.2,9.6-10.2,24.15-10.2,15.15,0,23.55,10.65A33.33,33.33,0,0,1,1185.4,78.1Zm-29-7.65q-7.5,0-11.7,4.88a21.91,21.91,0,0,0-5,12.52h31q0-11.84-7.5-15.9A14.77,14.77,0,0,0,1156.37,70.45Z"/><path class="a" d="M1218.17,72.7Q1224.77,57,1238,57a25.82,25.82,0,0,1,6.45,1l-.3,17.7a39.3,39.3,0,0,0-8.25-.9q-17.7,0-17.7,24.45V131.2h-17.7v-73h17.7Z"/><path class="a" d="M1270.07,109q.3,10.35,15.15,10.35a16.46,16.46,0,0,0,9.38-2.47q3.68-2.47,3.67-5.78A6.16,6.16,0,0,0,1296,106a22.13,22.13,0,0,0-7-3.3l-15.9-5.7q-17.7-6.15-17.7-20.1,0-9.3,8.33-14.92t22.35-5.63q14,0,21.6,6.15A20,20,0,0,1,1315.52,78h-16.65a7.3,7.3,0,0,0-3.45-5.7q-3.15-2.1-9-2.1t-9.07,2.33c-2.16,1.55-3.23,3.32-3.23,5.32q0,5.25,8.85,7.8l17.25,6.45q8.55,2.85,13.13,7.28a15.24,15.24,0,0,1,4.57,11.47q0,9-8.55,15.6-8.85,6.9-23.4,6.9t-23.4-6.37q-8.85-6.37-9-17.93Z"/></svg>