<svg xmlns="http://www.w3.org/2000/svg" viewBox="0 0 1326 175"><defs><style>.a{fill:#fff;}</style></defs><title>dhis2developers-logo-rgb-negative</title><path class="a" d="M190.46,56.48,107.71,2.84a19.73,19.73,0,0,0-20.32,0L7,54.93a12,12,0,0,0-.25,20.63l80.54,54.91a19.39,19.39,0,0,0,20.38.25l82.75-53.65a11.87,11.87,0,0,0,0-20.59ZM99.41,117.93a4.29,4.29,0,0,1-3.49-.05l-77-52.49L95.68,15.63a4.76,4.76,0,0,1,3.74,0l78.91,51.15Z"/><path class="a" d="M87.39,44.32,43.83,72.56l13.62,9.33L95.68,57.11a4.76,4.76,0,0,1,3.74,0l39.37,25.52,14-9.06L107.71,44.32A19.76,19.76,0,0,0,87.39,44.32Z"/><path class="a" d="M190.46,98l-8.62-5.59-14.05,9.06,10.53,6.83L99.41,159.41a4.37,4.37,0,0,1-3.49,0l-77-52.5,10-6.47L15.28,91.07,7,96.41A12,12,0,0,0,6.79,117L87.33,172a19.36,19.36,0,0,0,20.38.24l82.74-53.65a11.87,11.87,0,0,0,0-20.59Z"/><path class="a" d="M292.14,67.22q-6.93-11-20.62-11a29.31,29.31,0,0,0-22.88,10.39q-9.33,10.69-9.34,27.85t9.79,28.3a30.15,30.15,0,0,0,23.48,10.68q14,0,20.77-13.39l2.11,11.29h14.6V28.09H292.14Zm0,31.76a18,18,0,0,1-5.27,13.25,16.12,16.12,0,0,1-24.53-1.13q-5.13-6.24-5.12-16.48t5-16.33a15.65,15.65,0,0,1,12.57-6.1q7.53,0,12,4.51a18.41,18.41,0,0,1,5.27,12.8Z"/><path class="a" d="M367.4,56.23q-14.44,0-22,13.85v-42H327.66V131.35h17.77V97.48q.3-12.65,5.34-19t12.12-6.32q7.07,0,11,4.14t3.92,12.27v42.75h17.76V88.6q0-14.61-6.85-23.49T367.4,56.23Z"/><rect class="a" x="412.56" y="58.04" width="17.76" height="73.31"/><path class="a" d="M421.44,24.17q-5.28,0-8.13,2.79a10.11,10.11,0,0,0-2.86,7.6,10.09,10.09,0,0,0,2.86,7.6c1.9,1.86,4.61,2.78,8.13,2.78s6.09-.92,8.05-2.78a10,10,0,0,0,2.94-7.6,10,10,0,0,0-2.94-7.6A11.21,11.21,0,0,0,421.44,24.17Z"/><path class="a" d="M492.94,92.06l-17.31-6.47q-8.88-2.57-8.89-7.83,0-3,3.24-5.35t9.11-2.33c3.91,0,6.93.71,9,2.11a7.32,7.32,0,0,1,3.46,5.72h16.71a20.1,20.1,0,0,0-7.9-15.51q-7.61-6.16-21.68-6.17t-22.43,5.65q-8.36,5.64-8.35,15,0,14,17.76,20.17l16,5.71a22.35,22.35,0,0,1,7.07,3.32,6.16,6.16,0,0,1,2.26,5.12c0,2.2-1.23,4.14-3.69,5.79a16.45,16.45,0,0,1-9.4,2.48q-14.91,0-15.21-10.38H446.12q.15,11.6,9,18t23.48,6.39q14.6,0,23.48-6.92,8.58-6.63,8.58-15.65a15.31,15.31,0,0,0-4.59-11.52Q501.52,94.92,492.94,92.06Z"/><path class="a" d="M542.61,115.09v-3.61a8.65,8.65,0,0,1,2.79-6.55c1.85-1.75,4.89-3.19,9.1-4.29l15.81-3.92q13.25-3.3,19.19-9.4t6-17.24q0-11.13-9.19-18.66-9.48-7.83-24.23-7.83-15.81,0-25.29,6.77-9.93,7.23-10.23,20.78h19.72q1.5-12,16.7-12,6.93,0,10.84,3.31a10.41,10.41,0,0,1,3.91,8.29A11.33,11.33,0,0,1,574.3,79q-3.39,3.39-11.67,5.49L548.33,88q-12.2,3-17.76,9.33-5.73,6.77-5.72,19.26v14.76h71.2V115.09Z"/><path class="a" d="M674.15,120q-6.75,13.35-20.7,13.35a30,30,0,0,1-23.4-10.65q-9.75-11.1-9.75-28.2t9.3-27.75a29.19,29.19,0,0,1,22.8-10.35q13.65,0,20.55,10.95v-39H690.8V131.2H676.25ZM655.7,72.25a15.63,15.63,0,0,0-12.53,6.08q-5,6.08-5,16.27t5.1,16.43a16.08,16.08,0,0,0,24.45,1.12A17.88,17.88,0,0,0,673,99V89.5a18.31,18.31,0,0,0-5.25-12.75Q663.2,72.25,655.7,72.25Z"/><path class="a" d="M767.07,78.1A40.79,40.79,0,0,1,769,89.65a67.27,67.27,0,0,1-.6,9.45h-47.1q.3,8.87,4.35,14.4t12.3,5.55q11,0,13.05-9.6H768.8a26.16,26.16,0,0,1-10,17.25q-8.55,6.6-20.85,6.6a31.63,31.63,0,0,1-24.15-10.5q-10.05-10.93-10-28,0-17.55,10-28.2,9.6-10.2,24.15-10.2,15.15,0,23.55,10.65A33.31,33.31,0,0,1,767.07,78.1Zm-29-7.65q-7.5,0-11.7,4.88a21.91,21.91,0,0,0-5,12.52h31.05Q752.45,76,745,72A14.77,14.77,0,0,0,738.05,70.45Z"/><path class="a" d="M795.8,58.3l16.65,55.35,16.8-55.35h20.4L822.5,131.2h-20L775.4,58.3Z"/><path class="a" d="M918.87,78.1a40.79,40.79,0,0,1,1.88,11.55,68.82,68.82,0,0,1-.6,9.45h-47.1q.3,8.87,4.35,14.4c2.7,3.7,6.79,5.55,12.3,5.55q10.95,0,13-9.6H920.6a26.2,26.2,0,0,1-10.05,17.25q-8.55,6.6-20.85,6.6a31.63,31.63,0,0,1-24.15-10.5q-10-10.93-10-28,0-17.55,10-28.2,9.59-10.2,24.15-10.2,15.15,0,23.55,10.65A33.31,33.31,0,0,1,918.87,78.1Zm-29-7.65c-5,0-8.91,1.63-11.7,4.88a21.84,21.84,0,0,0-4.95,12.52h31q0-11.84-7.5-15.9A14.77,14.77,0,0,0,889.85,70.45Z"/><path class="a" d="M935.9,28.3h17.7V131.2H935.9Z"/><path class="a" d="M1002.19,56.35A40.49,40.49,0,0,1,1016,58.68a29,29,0,0,1,11.1,7.12q10.35,10.5,10.34,29.1,0,18.3-10.34,28.8-9.31,9.6-24.91,9.6T977,123.7q-10.35-10.35-10.36-28.8,0-18.75,10.36-29.1Q986.44,56.35,1002.19,56.35Zm17.56,38.4q0-11.55-4.5-17.32t-12.53-5.78a16.69,16.69,0,0,0-13.12,5.78q-5.11,5.77-5.1,17.32t4.57,17.33q4.57,5.78,12.53,5.77a16.62,16.62,0,0,0,13-5.77Q1019.74,106.31,1019.75,94.75Z"/><path class="a" d="M1066.54,68.2q6.9-11.85,21-11.85a30.59,30.59,0,0,1,23.1,10.2q10.2,10.8,10.2,28.2,0,17.55-10.35,28.35-9.6,10.2-23,10.2t-19.5-8v41.4h-17.7V58.3h14.55Zm17.85,49.05a17.55,17.55,0,0,0,6.53-1.35,17,17,0,0,0,6.07-4.2q6-6.3,6-16.87t-5.17-16.58a16.08,16.08,0,0,0-12.6-6q-7.42,0-12.15,4.28t-5,12.22v13a14.44,14.44,0,0,0,5,11.4A16.75,16.75,0,0,0,1084.39,117.25Z"/><path class="a" d="M1191.87,78.1a41.11,41.11,0,0,1,1.87,11.55,67.27,67.27,0,0,1-.6,9.45H1146q.3,8.87,4.35,14.4t12.3,5.55q10.95,0,13-9.6h17.85a26.16,26.16,0,0,1-10,17.25q-8.55,6.6-20.85,6.6a31.63,31.63,0,0,1-24.15-10.5q-10.05-10.93-10-28,0-17.55,10-28.2,9.6-10.2,24.15-10.2,15.15,0,23.55,10.65A33.51,33.51,0,0,1,1191.87,78.1Zm-29-7.65q-7.5,0-11.7,4.88a21.91,21.91,0,0,0-5,12.52h31q0-11.84-7.5-15.9A14.77,14.77,0,0,0,1162.84,70.45Z"/><path class="a" d="M1224.64,72.7q6.6-15.75,19.8-15.75a25.82,25.82,0,0,1,6.45,1l-.3,17.7a39.3,39.3,0,0,0-8.25-.9q-17.7,0-17.7,24.45V131.2h-17.7v-73h17.7Z"/><path class="a" d="M1276.54,109q.3,10.35,15.15,10.35a16.43,16.43,0,0,0,9.37-2.47q3.68-2.47,3.68-5.78a6.16,6.16,0,0,0-2.25-5.1,22.13,22.13,0,0,0-7-3.3l-15.9-5.7q-17.7-6.15-17.7-20.1,0-9.3,8.32-14.92t22.35-5.63q14,0,21.6,6.15A20,20,0,0,1,1322,78h-16.65a7.3,7.3,0,0,0-3.45-5.7q-3.15-2.1-9-2.1t-9.08,2.33q-3.22,2.33-3.22,5.32,0,5.25,8.85,7.8l17.25,6.45q8.55,2.85,13.12,7.28a15.25,15.25,0,0,1,4.58,11.47q0,9-8.55,15.6-8.85,6.9-23.4,6.9t-23.4-6.37q-8.85-6.37-9-17.93Z"/></svg>