<?xml version="1.0" encoding="UTF-8"?>
<svg width="180px" height="180px" viewBox="0 0 180 180" version="1.1" xmlns="http://www.w3.org/2000/svg" xmlns:xlink="http://www.w3.org/1999/xlink">
    <!-- Generator: Sketch 51.2 (57519) - http://www.bohemiancoding.com/sketch -->
    <title>Icon-Social-Positive-Small</title>
    <desc>Created with Sketch.</desc>
    <defs></defs>
    <g id="Icon-Social-Positive-Small" stroke="none" stroke-width="1" fill="none" fill-rule="evenodd">
        <g id="dhis2-icon-rgb-positive" transform="translate(28.000000, 34.000000)" fill="#0080D4" fill-rule="nonzero">
            <path d="M120.033265,36.0612245 L67.6938776,2.11306122 C63.7381465,-0.263240257 58.7940984,-0.263240257 54.8383673,2.11306122 L3.99204082,35.0679592 C1.67341091,36.4081751 0.232435612,38.8708766 0.199984036,41.5487807 C0.167532459,44.2266848 1.54840597,46.7235821 3.83387755,48.1195918 L54.7877551,82.877551 C58.7066507,85.3673236 63.6960782,85.4285586 67.674898,83.0357143 L120.033265,49.0938776 C122.36279,47.7523878 123.798486,45.2688882 123.798486,42.5807143 C123.798486,39.8925404 122.36279,37.4090408 120.033265,36.067551 L120.033265,36.0612245 Z M62.4618367,74.9377551 C61.7546308,75.2406197 60.952117,75.2291223 60.2538776,74.9061224 L11.5395918,41.6981633 L60.1020408,10.2046939 C60.8577141,9.88186678 61.71249,9.88186678 62.4681633,10.2046939 L112.359184,42.564898 L62.4618367,74.9377551 Z" id="Shape"></path>
            <path d="M54.8257143,28.3555102 L27.2673469,46.2216327 L35.8777551,52.1242857 L60.1020408,36.4471429 C60.8577141,36.1243158 61.71249,36.1243158 62.4681633,36.4471429 L87.3757143,52.592449 L96.2328571,46.8606122 L67.6938776,28.3555102 C63.7338413,25.9783554 58.7857506,25.9783554 54.8257143,28.3555102 Z" id="Shape"></path>
            <path d="M120.033265,62.2910204 L114.579796,58.7544898 L105.69102,64.4863265 L112.352857,68.8073469 L62.4302041,101.167551 C61.7261579,101.474194 60.9262911,101.474194 60.2222449,101.167551 L11.5079592,67.9532653 L17.8344898,63.86 L9.20510204,57.9320408 L3.99204082,61.3104082 C1.67341091,62.6506241 0.232435612,65.1133255 0.199984036,67.7912296 C0.167532459,70.4691337 1.54840597,72.9660311 3.83387755,74.3620408 L54.7877551,109.107347 C58.706535,111.599603 63.6984864,111.658419 67.674898,109.259184 L120.026939,75.3173469 C122.356463,73.9758572 123.792159,71.4923576 123.792159,68.8041837 C123.792159,66.1160098 122.356463,63.6325102 120.026939,62.2910204 L120.033265,62.2910204 Z" id="Shape"></path>
        </g>
    </g>
</svg>