<?xml version="1.0" encoding="UTF-8"?>
<svg width="400px" height="400px" viewBox="0 0 400 400" version="1.1" xmlns="http://www.w3.org/2000/svg" xmlns:xlink="http://www.w3.org/1999/xlink">
    <!-- Generator: Sketch 51.2 (57519) - http://www.bohemiancoding.com/sketch -->
    <title>Icon-Social-Negative-Large</title>
    <desc>Created with Sketch.</desc>
    <defs></defs>
    <g id="Icon-Social-Negative-Large" stroke="none" stroke-width="1" fill="none" fill-rule="evenodd">
        <rect fill="#393D4D" x="0" y="0" width="400" height="400"></rect>
        <g id="dhis2-icon-rgb-positive" transform="translate(60.000000, 74.000000)" fill="#FFFFFF" fill-rule="nonzero">
            <path d="M271.042857,81.4285714 L152.857143,4.77142857 C143.924847,-0.594413483 132.760867,-0.594413483 123.828571,4.77142857 L9.01428571,79.1857143 C3.77866979,82.2120084 0.524854609,87.7729471 0.451576855,93.8198273 C0.378299102,99.8667075 3.49640059,105.504863 8.65714286,108.657143 L123.714286,187.142857 C132.563405,192.764924 143.829854,192.903197 152.814286,187.5 L271.042857,110.857143 C276.303074,107.827972 279.544968,102.22007 279.544968,96.15 C279.544968,90.0799299 276.303074,84.4720276 271.042857,81.4428571 L271.042857,81.4285714 Z M141.042857,169.214286 C139.44594,169.898173 137.633812,169.872212 136.057143,169.142857 L26.0571429,94.1571429 L135.714286,23.0428571 C137.420645,22.3138927 139.350784,22.3138927 141.057143,23.0428571 L253.714286,96.1142857 L141.042857,169.214286 Z" id="Shape"></path>
            <path d="M123.8,64.0285714 L61.5714286,104.371429 L81.0142857,117.7 L135.714286,82.3 C137.420645,81.5710356 139.350784,81.5710356 141.057143,82.3 L197.3,118.757143 L217.3,105.814286 L152.857143,64.0285714 C143.915125,58.6608026 132.742017,58.6608026 123.8,64.0285714 Z" id="Shape"></path>
            <path d="M271.042857,140.657143 L258.728571,132.671429 L238.657143,145.614286 L253.7,155.371429 L140.971429,228.442857 C139.381647,229.135278 137.575496,229.135278 135.985714,228.442857 L25.9857143,153.442857 L40.2714286,144.2 L20.7857143,130.814286 L9.01428571,138.442857 C3.77866979,141.469151 0.524854609,147.03009 0.451576855,153.07697 C0.378299102,159.12385 3.49640059,164.762006 8.65714286,167.914286 L123.714286,246.371429 C132.563143,251.999104 143.835292,252.131913 152.814286,246.714286 L271.028571,170.071429 C276.288788,167.042258 279.530683,161.434356 279.530683,155.364286 C279.530683,149.294216 276.288788,143.686313 271.028571,140.657143 L271.042857,140.657143 Z" id="Shape"></path>
        </g>
    </g>
</svg>