<svg id="Layer_1" data-name="Layer 1" xmlns="http://www.w3.org/2000/svg" viewBox="0 0 1209.1 174.95"><defs><style>.cls-1{fill:#0080d4;}.cls-2{fill:#212225;}.cls-3{fill:#808182;}</style></defs><title>dhis2Academy-logo-rgb-positive</title><path class="cls-1" d="M189.41,56.46,106.67,2.82a19.78,19.78,0,0,0-20.33,0L6,54.91a12,12,0,0,0-.25,20.63l80.54,54.91a18.62,18.62,0,0,0,10.4,3,18.42,18.42,0,0,0,10-2.78l82.75-53.64a11.87,11.87,0,0,0,0-20.59Zm-91,61.45a4.37,4.37,0,0,1-3.49,0l-77-52.5L94.63,15.6a4.81,4.81,0,0,1,3.74,0l78.91,51.15Z"/><path class="cls-1" d="M86.34,44.3,42.78,72.54,56.4,81.87,94.63,57.08a4.81,4.81,0,0,1,3.74,0l39.37,25.53,14-9.06L106.67,44.3A19.75,19.75,0,0,0,86.34,44.3Z"/><path class="cls-1" d="M189.41,97.94l-8.62-5.59-14,9.06,10.52,6.82L98.36,159.39a4.37,4.37,0,0,1-3.49,0l-77-52.49,10-6.47L14.24,91,6,96.39A12,12,0,0,0,5.74,117l80.54,54.91a18.62,18.62,0,0,0,10.4,3,18.42,18.42,0,0,0,10-2.78l82.74-53.64a11.87,11.87,0,0,0,0-20.59Z"/><path class="cls-2" d="M291.09,67.2q-6.91-11-20.62-11A29.28,29.28,0,0,0,247.59,66.6q-9.33,10.68-9.33,27.84t9.78,28.3a30.13,30.13,0,0,0,23.48,10.69q14,0,20.78-13.4l2.1,11.29H309V28.06H291.09Zm0,31.76a18,18,0,0,1-5.27,13.25,16.13,16.13,0,0,1-24.53-1.14q-5.12-6.24-5.12-16.48t5-16.33a15.67,15.67,0,0,1,12.57-6.09q7.53,0,12,4.51a18.34,18.34,0,0,1,5.27,12.8Z"/><path class="cls-2" d="M366.35,56.21q-14.44,0-22,13.85v-42H326.62V131.32h17.76V97.45q.3-12.63,5.34-19t12.12-6.32c4.71,0,8.38,1.37,11,4.14s3.91,6.84,3.91,12.26v42.75H394.5V88.57q0-14.59-6.85-23.48T366.35,56.21Z"/><rect class="cls-2" x="411.51" y="58.02" width="17.76" height="73.31"/><path class="cls-2" d="M420.39,24.15q-5.26,0-8.13,2.78a10.15,10.15,0,0,0-2.86,7.6,10.16,10.16,0,0,0,2.86,7.61q2.87,2.78,8.13,2.78c3.41,0,6.1-.93,8.05-2.78a10,10,0,0,0,2.94-7.61,10,10,0,0,0-2.94-7.6C426.49,25.08,423.8,24.15,420.39,24.15Z"/><path class="cls-2" d="M491.89,92l-17.31-6.48Q465.7,83,465.7,77.73q0-3,3.24-5.34c2.15-1.55,5.19-2.33,9.1-2.33s6.93.7,9,2.11a7.36,7.36,0,0,1,3.46,5.71h16.71a20.11,20.11,0,0,0-7.91-15.5q-7.6-6.16-21.67-6.17t-22.43,5.65q-8.36,5.64-8.36,15,0,14,17.76,20.17l16,5.72a22.31,22.31,0,0,1,7.08,3.32,6.18,6.18,0,0,1,2.25,5.11q0,3.31-3.68,5.8a16.57,16.57,0,0,1-9.41,2.48q-14.89,0-15.21-10.39H445.08q.15,11.59,9,18t23.48,6.4q14.6,0,23.48-6.92,8.58-6.63,8.58-15.66a15.31,15.31,0,0,0-4.59-11.51Q500.47,94.9,491.89,92Z"/><path class="cls-2" d="M541.56,115.06v-3.61a8.66,8.66,0,0,1,2.79-6.55q2.77-2.62,9.11-4.29l15.8-3.91q13.25-3.3,19.19-9.41t5.95-17.23q0-11.14-9.18-18.67-9.5-7.81-24.24-7.83-15.79,0-25.29,6.78-9.93,7.23-10.23,20.77h19.72q1.5-12,16.71-12,6.92,0,10.83,3.31a10.42,10.42,0,0,1,3.92,8.28A11.36,11.36,0,0,1,573.25,79q-3.39,3.38-11.67,5.49L547.29,88q-12.21,3-17.77,9.33-5.71,6.78-5.72,19.27v14.75H595V115.06Z"/><path class="cls-3" d="M649.55,88.58a84.18,84.18,0,0,1,20.1,2.85v-7.2q0-7.65-3.07-11.33c-2.06-2.45-5.4-3.67-10.06-3.67s-8.22.92-10.72,2.77a9.24,9.24,0,0,0-3.75,7.88H622.7q0-12.45,8.78-18T656,56.33q22.5,0,29.1,15.75a33,33,0,0,1,2.25,12.75v46.35H671.9l-1.35-9.75q-7,11.85-21.6,11.85-14.1,0-21.9-6.9a21.71,21.71,0,0,1-7.2-16.73q0-10.12,7.95-15.6T649.55,88.58Zm20.1,14.1a63.26,63.26,0,0,0-16.5-2.4q-14.4,0-14.4,9.6a9,9,0,0,0,3.3,7q3.3,2.93,10.58,2.93a16,16,0,0,0,12-4.88A18,18,0,0,0,669.65,102.68Z"/><path class="cls-3" d="M734,56.33a31.44,31.44,0,0,1,12.38,2.32,29.69,29.69,0,0,1,18.07,24.23l-17.85.45a16.4,16.4,0,0,0-4.42-8,10.35,10.35,0,0,0-7.43-3.15,18.54,18.54,0,0,0-7.2,1.27,13.85,13.85,0,0,0-5.25,4q-5.1,6.3-5.1,17.4T722,111.6a14.76,14.76,0,0,0,11.63,5.63q6.82,0,9.89-3.23t3.08-8.77h17.85q0,12-8,20-8.1,8.1-22.65,8.1a31.63,31.63,0,0,1-24.15-10.5q-10.35-11.25-10.35-28,0-17.7,10.35-28.35Q719.45,56.33,734,56.33Z"/><path class="cls-3" d="M803.45,88.58a84.18,84.18,0,0,1,20.1,2.85v-7.2q0-7.65-3.08-11.33t-10-3.67q-7,0-10.73,2.77A9.24,9.24,0,0,0,796,79.88H776.6q0-12.45,8.77-18t24.53-5.55q22.5,0,29.1,15.75a33,33,0,0,1,2.25,12.75v46.35H825.8l-1.35-9.75q-7.05,11.85-21.6,11.85-14.1,0-21.9-6.9a21.71,21.71,0,0,1-7.2-16.73q0-10.12,8-15.6T803.45,88.58Zm20.1,14.1a63.26,63.26,0,0,0-16.5-2.4q-14.4,0-14.4,9.6a9,9,0,0,0,3.3,7q3.3,2.93,10.57,2.93a16,16,0,0,0,12-4.88A17.9,17.9,0,0,0,823.55,102.68Z"/><path class="cls-3" d="M907,119.93q-6.75,13.35-20.7,13.35a30,30,0,0,1-23.4-10.65q-9.75-11.1-9.75-28.2t9.3-27.75a29.19,29.19,0,0,1,22.8-10.35q13.65,0,20.55,11v-39H923.6v102.9H909.05ZM888.5,72.23A15.59,15.59,0,0,0,876,78.3q-5,6.08-5,16.28t5.1,16.42a16.07,16.07,0,0,0,24.45,1.13,17.9,17.9,0,0,0,5.25-13.2V89.48a18.31,18.31,0,0,0-5.25-12.75Q896,72.23,888.5,72.23Z"/><path class="cls-3" d="M999,78.08a40.79,40.79,0,0,1,1.88,11.55,67.27,67.27,0,0,1-.6,9.45h-47.1q.3,8.85,4.35,14.4T969.8,119q11,0,13.05-9.6h17.85a26.16,26.16,0,0,1-10.05,17.25q-8.55,6.6-20.85,6.6a31.63,31.63,0,0,1-24.15-10.5q-10-10.95-10-28,0-17.55,10-28.2,9.6-10.2,24.15-10.2Q985,56.33,993.35,67A33.21,33.21,0,0,1,999,78.08Zm-29-7.65q-7.5,0-11.7,4.87a21.94,21.94,0,0,0-5,12.53h31.05q0-11.85-7.5-15.9A14.65,14.65,0,0,0,970,70.43Z"/><path class="cls-3" d="M1078.7,72.08q7-15.75,24.75-15.75,13,0,20.25,8.85,6.9,8.4,6.9,23.4v42.6h-17.85V88.58q0-8.1-3.9-12.23t-10.95-4.12q-7.05,0-11.55,6.15t-4.8,18.6v34.2h-17.7V88.58q0-8.1-3.9-12.23t-11-4.12q-7.05,0-12.07,6.3t-5.33,18.9v33.75h-17.7V58.28h15.45l2,12.6q7.2-14.55,23.1-14.55,9.15,0,15.22,4.2A25.2,25.2,0,0,1,1078.7,72.08Z"/><path class="cls-3" d="M1156.85,58.28l17.55,52.5,15.3-52.5h18l-27.9,86.1q-4.35,13.05-10.58,18.75t-15.82,5.7a43.81,43.81,0,0,1-19.5-4.8v-15.6a29.14,29.14,0,0,0,15.75,4.95,10.57,10.57,0,0,0,8.62-4.2,33,33,0,0,0,5.48-11l2.25-7-29.25-72.9Z"/></svg>