<svg width="1000" height="123" viewBox="0 0 1000 123" fill="none" xmlns="http://www.w3.org/2000/svg">
<path d="M134.339 39.5452L75.6541 1.96968C73.4756 0.68076 70.9838 0 68.4444 0C65.9049 0 63.4131 0.68076 61.2346 1.96968L4.25191 38.4594C2.97418 39.1889 1.91045 40.2339 1.16513 41.492C0.419806 42.7501 0.0185082 44.1779 0.00062503 45.6354C-0.0172581 47.0929 0.348888 48.53 1.06312 49.8055C1.77736 51.081 2.81514 52.1512 4.0746 52.911L61.1992 91.3763C63.393 92.7827 65.9603 93.5142 68.5756 93.4778C71.0799 93.5135 73.5419 92.8376 75.6683 91.5304L134.36 53.9548C135.645 53.2265 136.713 52.1761 137.455 50.9099C138.198 49.6436 138.589 48.2063 138.589 46.743C138.589 45.2798 138.198 43.8424 137.455 42.5762C136.713 41.3099 135.645 40.2596 134.36 39.5312L134.339 39.5452ZM69.7955 82.5918C69.4051 82.7598 68.9837 82.8465 68.5578 82.8465C68.132 82.8465 67.7106 82.7598 67.3202 82.5918L12.7064 45.8148L67.1145 10.9222C67.5342 10.7473 67.9852 10.6572 68.4408 10.6572C68.8964 10.6572 69.3474 10.7473 69.7672 10.9222L125.736 46.7535L69.7955 82.5918Z" fill="white"/>
<path d="M61.2346 31.0271L30.3389 50.8096L39.9991 57.3454L67.1145 39.9797C67.5342 39.8047 67.9852 39.7146 68.4408 39.7146C68.8964 39.7146 69.3474 39.8047 69.7672 39.9797L97.6911 57.8638L107.621 51.5171L75.6541 31.0271C73.4764 29.736 70.9843 29.0539 68.4444 29.0539C65.9044 29.0539 63.4123 29.736 61.2346 31.0271Z" fill="white"/>
<path d="M134.339 68.6026L128.225 64.6868L118.295 71.0334L125.757 75.8109L69.7601 111.649C69.3696 111.817 68.9483 111.904 68.5224 111.904C68.0965 111.904 67.6752 111.817 67.2847 111.649L12.671 74.8792L19.7637 70.3469L10.0963 63.7411L4.25195 67.5168C2.97707 68.2465 1.91583 69.2906 1.17209 70.5469C0.428342 71.8032 0.0275665 73.2287 0.00897954 74.6839C-0.0096074 76.1391 0.354631 77.5741 1.06605 78.8486C1.77747 80.123 2.8117 81.1932 4.06754 81.9544L61.1921 120.42C63.386 121.826 65.9533 122.558 68.5685 122.521C71.0729 122.557 73.5349 121.881 75.6612 120.574L134.346 82.9982C135.631 82.2698 136.699 81.2195 137.441 79.9532C138.184 78.687 138.575 77.2496 138.575 75.7864C138.575 74.3232 138.184 72.8858 137.441 71.6196C136.699 70.3533 135.631 69.303 134.346 68.5746L134.339 68.6026Z" fill="white"/>
<path d="M206.458 47.0688C203.19 41.9317 198.315 39.3632 191.832 39.3632C188.749 39.3115 185.694 39.9385 182.887 41.1987C180.08 42.4588 177.592 44.3205 175.604 46.6485C171.193 51.6362 168.987 58.1369 168.987 66.1508C168.987 74.1647 171.299 80.7729 175.923 85.9754C177.965 88.3635 180.518 90.2741 183.398 91.5691C186.278 92.8641 189.413 93.5113 192.577 93.4638C199.197 93.4638 204.11 90.3349 207.316 84.077L208.805 91.9858H219.161V19.6507H206.458V47.0688ZM206.458 69.3171C206.507 71.0341 206.202 72.7431 205.559 74.3392C204.916 75.9353 203.95 77.3848 202.72 78.5989C201.588 79.7934 200.208 80.7311 198.674 81.3471C197.139 81.9632 195.488 82.2429 193.834 82.1669C192.179 82.091 190.562 81.6612 189.092 80.9073C187.622 80.1534 186.336 79.0933 185.321 77.8004C182.9 74.8862 181.69 71.0381 181.69 66.2559C181.69 61.4737 182.872 57.6606 185.236 54.8165C186.287 53.4729 187.639 52.3883 189.186 51.6481C190.733 50.9078 192.433 50.5321 194.152 50.5504C197.712 50.5504 200.549 51.6035 202.663 53.7097C205.047 56.1016 206.389 59.3199 206.401 62.6763L206.458 69.3171Z" fill="white"/>
<path d="M259.837 39.3702C253.009 39.3702 247.808 42.6042 244.233 49.0723V19.6507H231.658V91.9858H244.255V68.2594C244.396 62.361 245.659 57.9245 248.042 54.9496C250.425 51.9748 253.291 50.499 256.638 50.5224C259.979 50.5224 262.582 51.4821 264.44 53.4225C266.299 55.3629 267.214 58.214 267.214 62.0108V91.9578H279.803V62.0388C279.803 55.2251 278.184 49.7425 274.945 45.5907C271.706 41.439 266.67 39.3655 259.837 39.3702Z" fill="white"/>
<path d="M304.465 40.638H291.868V91.9927H304.465V40.638Z" fill="white"/>
<path d="M298.166 16.9116C295.679 16.9116 293.757 17.5608 292.4 18.8591C291.709 19.5608 291.172 20.3958 290.823 21.3119C290.474 22.228 290.32 23.2055 290.371 24.183C290.32 25.1616 290.473 26.1402 290.822 27.0576C291.171 27.9749 291.708 28.8111 292.4 29.5139C293.757 30.8122 295.679 31.4613 298.166 31.4613C300.585 31.4613 302.493 30.8098 303.876 29.5139C304.583 28.82 305.135 27.9866 305.494 27.068C305.853 26.1495 306.012 25.1664 305.961 24.183C306.011 23.2007 305.852 22.219 305.492 21.3017C305.133 20.3845 304.582 19.5522 303.876 18.8591C302.493 17.5631 300.585 16.9116 298.166 16.9116Z" fill="white"/>
<path d="M896.9 41.7435H884.303V93.0981H896.9V41.7435Z" fill="white"/>
<path d="M890.602 18.0171C888.115 18.0171 886.192 18.6662 884.835 19.9645C884.144 20.6662 883.608 21.5013 883.259 22.4174C882.91 23.3335 882.756 24.3109 882.807 25.2884C882.755 26.267 882.909 27.2457 883.258 28.163C883.607 29.0803 884.144 29.9165 884.835 30.6193C886.192 31.9176 888.115 32.5667 890.602 32.5667C893.02 32.5667 894.928 31.9153 896.311 30.6193C897.019 29.9254 897.57 29.092 897.929 28.1734C898.289 27.2549 898.448 26.2718 898.397 25.2884C898.447 24.3061 898.287 23.3244 897.928 22.4071C897.569 21.4899 897.018 20.6576 896.311 19.9645C894.928 18.6685 893.02 18.0171 890.602 18.0171Z" fill="white"/>
<path d="M348.879 64.4416L336.602 59.9023C332.403 58.7254 330.303 56.9064 330.303 54.4452C330.303 53.0442 331.069 51.7973 332.601 50.7045C334.126 49.6187 336.282 49.0723 339.056 49.0723C341.829 49.0723 343.971 49.5627 345.439 50.5504C346.138 50.9789 346.725 51.5646 347.152 52.2597C347.578 52.9549 347.832 53.7397 347.893 54.5503H359.745C359.693 52.441 359.162 50.3703 358.191 48.491C357.219 46.6116 355.833 44.9717 354.135 43.6923C350.541 40.8156 345.418 39.3748 338.765 39.3702C332.112 39.3655 326.809 40.6848 322.856 43.3281C318.903 45.962 316.926 49.4646 316.926 53.8358C316.926 60.3739 321.125 65.0837 329.523 67.9652L340.871 71.9721C342.671 72.4493 344.371 73.2366 345.893 74.2978C346.425 74.7289 346.846 75.2776 347.124 75.8995C347.401 76.5214 347.526 77.199 347.489 77.8775C347.489 79.4233 346.619 80.7776 344.879 81.9404C342.88 83.1662 340.555 83.7714 338.204 83.6777C331.164 83.6777 327.568 81.2516 327.416 76.3994H315.678C315.749 81.812 317.877 86.0151 322.061 89.0086C326.246 92.0022 331.797 93.4966 338.715 93.4919C345.619 93.4919 351.17 91.8761 355.369 88.6444C359.426 85.5481 361.454 81.8914 361.454 77.6743C361.511 76.1805 361.25 74.6915 360.689 73.303C360.129 71.9145 359.28 70.657 358.199 69.6114C356.043 67.5192 352.936 65.7959 348.879 64.4416Z" fill="white"/>
<path d="M384.108 80.5955V78.0666C384.09 77.207 384.257 76.3533 384.598 75.5623C384.939 74.7712 385.447 74.0609 386.087 73.4782C387.397 72.2547 389.551 71.2529 392.549 70.473L403.755 67.734C410.02 66.1929 414.557 63.9956 417.366 61.1422C420.175 58.2888 421.581 54.2655 421.586 49.0723C421.586 43.8698 419.416 39.5103 415.075 35.9937C410.583 32.3464 404.852 30.518 397.882 30.5087C390.416 30.5087 384.437 32.0919 379.945 35.2582C375.25 38.6347 372.831 43.4846 372.689 49.8079H386.676C387.385 44.2038 391.336 41.4017 398.528 41.4017C401.8 41.4017 404.36 42.1746 406.209 43.7204C407.089 44.4141 407.797 45.2973 408.279 46.3026C408.761 47.3078 409.004 48.4085 408.99 49.5207C409.009 50.6002 408.806 51.6724 408.393 52.672C407.979 53.6715 407.364 54.5776 406.585 55.3349C404.982 56.9134 402.223 58.1954 398.308 59.1807L388.172 61.6395C382.399 63.0406 378.198 65.2192 375.569 68.1753C372.869 71.3417 371.516 75.8413 371.512 81.6742V92.0068H422.012V80.5955H384.108Z" fill="white"/>
<path d="M467.81 39.6474C470.818 39.5986 473.805 40.1514 476.591 41.2726C480.07 42.7091 483.095 45.0421 485.35 48.0279C487.604 51.0136 489.006 54.5426 489.407 58.246L476.747 58.5612C476.261 56.4375 475.173 54.494 473.612 52.9571C472.928 52.2595 472.109 51.7047 471.204 51.3256C470.298 50.9466 469.325 50.751 468.342 50.7505C466.597 50.7093 464.861 51.0118 463.235 51.6402C461.783 52.2642 460.506 53.2255 459.512 54.4422C457.1 57.3844 455.894 61.4474 455.894 66.6312C455.894 71.815 457.029 75.7262 459.299 78.3648C460.281 79.5969 461.534 80.5923 462.963 81.2756C464.392 81.9588 465.96 82.3121 467.548 82.3087C470.772 82.3087 473.111 81.5544 474.562 80.046C476.014 78.5376 476.742 76.4897 476.747 73.9025H489.407C489.407 79.5066 487.516 84.1767 483.733 87.9128C479.903 91.6956 474.548 93.5869 467.668 93.5869C464.446 93.6481 461.248 93.0228 458.292 91.7535C455.336 90.4843 452.692 88.6009 450.539 86.2315C445.645 80.9777 443.198 74.4396 443.198 66.6172C443.198 58.3511 445.645 51.7312 450.539 46.7576C455.173 42.0174 460.93 39.6474 467.81 39.6474Z" fill="white"/>
<path d="M613.748 50.4873C617.058 43.1319 622.91 39.4542 631.303 39.4542C637.45 39.4542 642.237 41.5207 645.665 45.6538C648.928 49.5766 650.559 55.0406 650.559 62.0458V91.8877H637.899V62.0458C637.899 58.263 636.977 55.4072 635.133 53.4785C633.289 51.5497 630.7 50.5877 627.366 50.5924C624.033 50.5924 621.302 52.0284 619.174 54.9005C617.046 57.7726 615.911 62.1158 615.77 67.9301V91.8877H603.216V62.0458C603.216 58.263 602.293 55.4072 600.449 53.4785C598.605 51.5497 596.005 50.5877 592.647 50.5924C589.314 50.5924 586.46 52.0635 584.087 55.0056C581.713 57.9478 580.453 62.361 580.306 68.2453V91.8877H567.752V40.8202H578.71L580.129 49.6467C583.533 42.8517 588.995 39.4542 596.513 39.4542C600.84 39.4542 604.438 40.4349 607.308 42.3964C610.221 44.4017 612.463 47.2184 613.748 50.4873Z" fill="white"/>
<path d="M714.64 50.4873C717.95 43.1319 723.801 39.4542 732.194 39.4542C738.341 39.4542 743.129 41.5207 746.557 45.6538C749.819 49.5766 751.451 55.0406 751.451 62.0458V91.8877H738.79V62.0458C738.79 58.263 737.868 55.4072 736.024 53.4785C734.18 51.5497 731.591 50.5877 728.258 50.5924C724.924 50.5924 722.193 52.0284 720.066 54.9005C717.938 57.7726 716.803 62.1158 716.661 67.9301V91.8877H704.107V62.0458C704.107 58.263 703.185 55.4072 701.341 53.4785C699.497 51.5497 696.896 50.5877 693.539 50.5924C690.205 50.5924 687.352 52.0635 684.978 55.0056C682.604 57.9478 681.344 62.361 681.198 68.2453V91.8877H668.644V40.8202H679.602L681.02 49.6467C684.425 42.8517 689.886 39.4542 697.404 39.4542C701.731 39.4542 705.329 40.4349 708.2 42.3964C711.112 44.4017 713.354 47.2184 714.64 50.4873Z" fill="white"/>
<path d="M963.934 39.6444L976.381 76.4214L987.233 39.6444H1000L980.211 99.9587C978.155 106.053 975.653 110.431 972.707 113.093C969.761 115.755 966.021 117.086 961.487 117.086C956.675 117.038 951.94 115.887 947.656 113.724V102.796C950.963 104.991 954.843 106.195 958.827 106.263C960.009 106.284 961.178 106.028 962.241 105.516C963.304 105.005 964.229 104.253 964.941 103.321C966.713 101.016 968.032 98.4017 968.828 95.6155L970.423 90.7119L949.677 39.6444H963.934Z" fill="white"/>
<path d="M504.102 66.5589C504.102 61.2694 505.12 56.5548 507.156 52.4152C509.193 48.2756 512.116 45.0724 515.925 42.8054C519.768 40.5385 524.218 39.405 529.276 39.405C536.468 39.405 542.33 41.6063 546.863 46.0087C551.428 50.4111 553.973 56.3906 554.499 63.947L554.597 67.5938C554.597 75.7744 552.314 82.3452 547.749 87.3062C543.184 92.2343 537.059 94.6984 529.374 94.6984C521.689 94.6984 515.548 92.2343 510.95 87.3062C506.385 82.3781 504.102 75.6759 504.102 67.1995V66.5589ZM518.339 67.5938C518.339 72.6533 519.292 76.5301 521.196 79.2241C523.101 81.8853 525.827 83.2159 529.374 83.2159C532.823 83.2159 535.516 81.9017 537.453 79.2734C539.391 76.6122 540.36 72.374 540.36 66.5589C540.36 61.5979 539.391 57.754 537.453 55.0271C535.516 52.3002 532.79 50.9368 529.276 50.9368C525.794 50.9368 523.101 52.3002 521.196 55.0271C519.292 57.7212 518.339 61.91 518.339 67.5938Z" fill="white"/>
<path d="M797.677 88.2918C794.163 92.5628 789.302 94.6984 783.095 94.6984C777.38 94.6984 773.012 93.0557 769.991 89.7703C767.002 86.4849 765.475 81.6717 765.409 75.3309V40.3907H779.646V74.8381C779.646 80.3904 782.175 83.1666 787.233 83.1666C792.061 83.1666 795.378 81.491 797.184 78.1399V40.3907H811.471V93.7127H798.071L797.677 88.2918Z" fill="white"/>
<path d="M840.114 40.3907L840.557 46.5508C844.367 41.7869 849.474 39.405 855.878 39.405C861.527 39.405 865.731 41.0642 868.49 44.3824C871.248 47.7007 872.661 52.6616 872.726 59.2653V93.7127H858.489V59.6103C858.489 56.5877 857.832 54.4029 856.519 53.0559C855.205 51.676 853.021 50.9861 849.967 50.9861C845.96 50.9861 842.955 52.6945 840.951 56.1113V93.7127H826.714V40.3907H840.114Z" fill="white"/>
<path d="M930.533 27.2819V40.3907H939.647V50.8382H930.533V77.45C930.533 79.4212 930.911 80.834 931.666 81.6882C932.422 82.5424 933.867 82.9695 936.002 82.9695C937.578 82.9695 938.974 82.8545 940.189 82.6245V93.4171C937.397 94.2713 934.524 94.6984 931.568 94.6984C921.584 94.6984 916.493 89.6553 916.296 79.5691V50.8382H908.513V40.3907H916.296V27.2819H930.533Z" fill="white"/>
</svg>
