<svg id="Layer_1" data-name="Layer 1" xmlns="http://www.w3.org/2000/svg" viewBox="0 0 1383.51 174.95"><defs><style>.cls-1{fill:#0080d4;}.cls-2{fill:#212225;}.cls-3{font-size:150px;fill:#808182;font-family:Karla-Bold, Karla;font-weight:700;}.cls-4{letter-spacing:-0.02em;}.cls-5{letter-spacing:-0.05em;}.cls-6{letter-spacing:-0.07em;}.cls-7{letter-spacing:-0.06em;}.cls-8{letter-spacing:-0.08em;}.cls-9{letter-spacing:-0.06em;}.cls-10{letter-spacing:-0.04em;}.cls-11{letter-spacing:0em;}</style></defs><title>dhis2Community-logo-rgb-positive</title><path class="cls-1" d="M189.41,56.46,106.67,2.82a19.78,19.78,0,0,0-20.33,0L6,54.91a12,12,0,0,0-.25,20.63l80.54,54.91a18.62,18.62,0,0,0,10.4,3,18.42,18.42,0,0,0,10-2.78l82.75-53.64a11.87,11.87,0,0,0,0-20.59Zm-91,61.45a4.37,4.37,0,0,1-3.49,0l-77-52.5L94.63,15.6a4.81,4.81,0,0,1,3.74,0l78.91,51.15Z"/><path class="cls-1" d="M86.34,44.3,42.78,72.54,56.4,81.87,94.63,57.08a4.81,4.81,0,0,1,3.74,0l39.37,25.53,14-9.06L106.67,44.3A19.75,19.75,0,0,0,86.34,44.3Z"/><path class="cls-1" d="M189.41,97.94l-8.62-5.59-14,9.06,10.52,6.82L98.36,159.39a4.37,4.37,0,0,1-3.49,0l-77-52.49,10-6.47L14.24,91,6,96.39A12,12,0,0,0,5.74,117l80.54,54.91a18.62,18.62,0,0,0,10.4,3,18.42,18.42,0,0,0,10-2.78l82.74-53.64a11.87,11.87,0,0,0,0-20.59Z"/><path class="cls-2" d="M291.09,67.2q-6.91-11-20.62-11A29.28,29.28,0,0,0,247.59,66.6q-9.33,10.68-9.33,27.84t9.78,28.3a30.13,30.13,0,0,0,23.48,10.69q14,0,20.78-13.4l2.1,11.29H309V28.06H291.09Zm0,31.76a18,18,0,0,1-5.27,13.25,16.13,16.13,0,0,1-24.53-1.14q-5.12-6.24-5.12-16.48t5-16.33a15.67,15.67,0,0,1,12.57-6.09q7.53,0,12,4.51a18.34,18.34,0,0,1,5.27,12.8Z"/><path class="cls-2" d="M366.35,56.21q-14.44,0-22,13.85v-42H326.62V131.32h17.76V97.45q.3-12.63,5.34-19t12.12-6.32c4.71,0,8.38,1.37,11,4.14s3.91,6.84,3.91,12.26v42.75H394.5V88.57q0-14.59-6.85-23.48T366.35,56.21Z"/><rect class="cls-2" x="411.51" y="58.02" width="17.76" height="73.31"/><path class="cls-2" d="M420.39,24.15q-5.26,0-8.13,2.78a10.15,10.15,0,0,0-2.86,7.6,10.16,10.16,0,0,0,2.86,7.61q2.87,2.78,8.13,2.78c3.41,0,6.1-.93,8.05-2.78a10,10,0,0,0,2.94-7.61,10,10,0,0,0-2.94-7.6C426.49,25.08,423.8,24.15,420.39,24.15Z"/><path class="cls-2" d="M491.89,92l-17.31-6.48Q465.7,83,465.7,77.73q0-3,3.24-5.34c2.15-1.55,5.19-2.33,9.1-2.33s6.93.7,9,2.11a7.36,7.36,0,0,1,3.46,5.71h16.71a20.11,20.11,0,0,0-7.91-15.5q-7.6-6.16-21.67-6.17t-22.43,5.65q-8.36,5.64-8.36,15,0,14,17.76,20.17l16,5.72a22.31,22.31,0,0,1,7.08,3.32,6.18,6.18,0,0,1,2.25,5.11q0,3.31-3.68,5.8a16.57,16.57,0,0,1-9.41,2.48q-14.89,0-15.21-10.39H445.08q.15,11.59,9,18t23.48,6.4q14.6,0,23.48-6.92,8.58-6.63,8.58-15.66a15.31,15.31,0,0,0-4.59-11.51Q500.47,94.9,491.89,92Z"/><path class="cls-2" d="M541.56,115.06v-3.61a8.66,8.66,0,0,1,2.79-6.55q2.77-2.62,9.11-4.29l15.8-3.91q13.25-3.3,19.19-9.41t5.95-17.23q0-11.14-9.18-18.67-9.5-7.81-24.24-7.83-15.79,0-25.29,6.78-9.93,7.23-10.23,20.77h19.72q1.5-12,16.71-12,6.92,0,10.83,3.31a10.42,10.42,0,0,1,3.92,8.28A11.36,11.36,0,0,1,573.25,79q-3.39,3.38-11.67,5.49L547.29,88q-12.21,3-17.77,9.33-5.71,6.78-5.72,19.27v14.75H595V115.06Z"/><text class="cls-3" transform="translate(611.6 131.18)"><tspan class="cls-4">c</tspan><tspan class="cls-5" x="76.32" y="0">o</tspan><tspan class="cls-6" x="153.12" y="0">m</tspan><tspan class="cls-7" x="284.67" y="0">m</tspan><tspan class="cls-8" x="418.32" y="0">u</tspan><tspan class="cls-9" x="500.52" y="0">n</tspan><tspan class="cls-10" x="585.56" y="0">i</tspan><tspan class="cls-11" x="628.31" y="0">t</tspan><tspan x="687.26" y="0">y</tspan></text></svg>